<svg xmlns="http://www.w3.org/2000/svg" viewBox="0 0 120 120">
  <symbol id="icon" viewBox="0 0 120 120"><g><g fill="none" stroke="currentColor" stroke-linecap="round" stroke-linejoin="round" stroke-width="7"><path d="M60 28C83 28 100 45 96 69C92 91 75 101 60 101S28 91 24 69C20 45 37 28 60 28Z"/><path d="M60 28C54 18 61 13 72 16M40 59L51 52M80 59L69 52M43 78C54 86 67 86 78 78"/></g></g></symbol>
  <symbol id="dauber" viewBox="0 0 120 120"><path d="M38 12H82L76 34H44ZM32 35H88L96 106H24Z" fill="none" stroke="currentColor" stroke-linejoin="round" stroke-width="7"/><g transform="translate(39 42) scale(.35)"><g fill="none" stroke="currentColor" stroke-linecap="round" stroke-linejoin="round" stroke-width="7"><path d="M60 28C83 28 100 45 96 69C92 91 75 101 60 101S28 91 24 69C20 45 37 28 60 28Z"/><path d="M60 28C54 18 61 13 72 16M40 59L51 52M80 59L69 52M43 78C54 86 67 86 78 78"/></g></g></symbol>
  <symbol id="call-ball" viewBox="0 0 120 120"><circle cx="60" cy="60" r="52" fill="none" stroke="currentColor" stroke-width="7"/><g transform="translate(39 10) scale(.34)"><g fill="none" stroke="currentColor" stroke-linecap="round" stroke-linejoin="round" stroke-width="7"><path d="M60 28C83 28 100 45 96 69C92 91 75 101 60 101S28 91 24 69C20 45 37 28 60 28Z"/><path d="M60 28C54 18 61 13 72 16M40 59L51 52M80 59L69 52M43 78C54 86 67 86 78 78"/></g></g></symbol>
  <symbol id="card-decoration" viewBox="0 0 120 120"><path d="M8 42V8H42M78 8H112V42M112 78V112H78M42 112H8V78" fill="none" stroke="currentColor" stroke-linecap="round" stroke-width="7"/><g transform="translate(44 44) scale(.27)"><g fill="none" stroke="currentColor" stroke-linecap="round" stroke-linejoin="round" stroke-width="7"><path d="M60 28C83 28 100 45 96 69C92 91 75 101 60 101S28 91 24 69C20 45 37 28 60 28Z"/><path d="M60 28C54 18 61 13 72 16M40 59L51 52M80 59L69 52M43 78C54 86 67 86 78 78"/></g></g></symbol>
  <symbol id="winner" viewBox="0 0 120 120"><g fill="currentColor"><circle cx="16" cy="28" r="4"/><circle cx="104" cy="24" r="4"/><circle cx="97" cy="91" r="3"/><path d="M16 76L22 65L28 76ZM89 39L95 28L101 39Z"/></g><g transform="translate(27 25) scale(.55)"><g fill="none" stroke="currentColor" stroke-linecap="round" stroke-linejoin="round" stroke-width="7"><path d="M60 28C83 28 100 45 96 69C92 91 75 101 60 101S28 91 24 69C20 45 37 28 60 28Z"/><path d="M60 28C54 18 61 13 72 16M40 59L51 52M80 59L69 52M43 78C54 86 67 86 78 78"/></g></g></symbol>
  <symbol id="other-winner" viewBox="0 0 120 120"><path d="M12 96C38 84 82 84 108 96" fill="none" stroke="currentColor" stroke-linecap="round" stroke-width="7"/><g transform="translate(39 35) scale(.35)"><g fill="none" stroke="currentColor" stroke-linecap="round" stroke-linejoin="round" stroke-width="7"><path d="M60 28C83 28 100 45 96 69C92 91 75 101 60 101S28 91 24 69C20 45 37 28 60 28Z"/><path d="M60 28C54 18 61 13 72 16M40 59L51 52M80 59L69 52M43 78C54 86 67 86 78 78"/></g></g></symbol>
</svg>
