<svg xmlns="http://www.w3.org/2000/svg" viewBox="0 0 120 120">
  <symbol id="icon" viewBox="0 0 120 120"><g><g fill="none" stroke="currentColor" stroke-linecap="round" stroke-linejoin="round" stroke-width="7"><circle cx="48" cy="82" r="13"/><path d="M34 78L26 58L76 43L84 62L61 69"/><path d="M72 42L91 31M89 24L94 14M97 31L108 27"/></g></g></symbol>
  <symbol id="dauber" viewBox="0 0 120 120"><path d="M38 12H82L76 34H44ZM32 35H88L96 106H24Z" fill="none" stroke="currentColor" stroke-linejoin="round" stroke-width="7"/><g transform="translate(39 42) scale(.35)"><g fill="none" stroke="currentColor" stroke-linecap="round" stroke-linejoin="round" stroke-width="7"><circle cx="48" cy="82" r="13"/><path d="M34 78L26 58L76 43L84 62L61 69"/><path d="M72 42L91 31M89 24L94 14M97 31L108 27"/></g></g></symbol>
  <symbol id="call-ball" viewBox="0 0 120 120"><circle cx="60" cy="60" r="52" fill="none" stroke="currentColor" stroke-width="7"/><g transform="translate(39 10) scale(.34)"><g fill="none" stroke="currentColor" stroke-linecap="round" stroke-linejoin="round" stroke-width="7"><circle cx="48" cy="82" r="13"/><path d="M34 78L26 58L76 43L84 62L61 69"/><path d="M72 42L91 31M89 24L94 14M97 31L108 27"/></g></g></symbol>
  <symbol id="card-decoration" viewBox="0 0 120 120"><path d="M8 42V8H42M78 8H112V42M112 78V112H78M42 112H8V78" fill="none" stroke="currentColor" stroke-linecap="round" stroke-width="7"/><g transform="translate(44 44) scale(.27)"><g fill="none" stroke="currentColor" stroke-linecap="round" stroke-linejoin="round" stroke-width="7"><circle cx="48" cy="82" r="13"/><path d="M34 78L26 58L76 43L84 62L61 69"/><path d="M72 42L91 31M89 24L94 14M97 31L108 27"/></g></g></symbol>
  <symbol id="winner" viewBox="0 0 120 120"><g fill="currentColor"><circle cx="22" cy="25" r="5"/><circle cx="96" cy="20" r="5"/><path d="M15 50L22 39L29 50ZM94 47L102 35L109 47Z"/></g><g transform="translate(27 25) scale(.55)"><g fill="none" stroke="currentColor" stroke-linecap="round" stroke-linejoin="round" stroke-width="7"><circle cx="48" cy="82" r="13"/><path d="M34 78L26 58L76 43L84 62L61 69"/><path d="M72 42L91 31M89 24L94 14M97 31L108 27"/></g></g></symbol>
  <symbol id="other-winner" viewBox="0 0 120 120"><g fill="none" stroke="currentColor" stroke-linecap="round" stroke-linejoin="round" stroke-width="6"><path d="M10 92L109 78L111 96L12 109Z"/><path d="M22 94C43 78 64 103 87 85"/><circle cx="24" cy="94" r="3" fill="currentColor"/><circle cx="55" cy="92" r="3" fill="currentColor"/><rect x="86" y="70" width="24" height="18" rx="3"/><path d="M86 79H110M98 70V88M16 70L20 61L24 70"/></g><g fill="none" stroke="currentColor" stroke-linecap="round" stroke-linejoin="round" stroke-width="6"><circle cx="60" cy="49" r="24"/><path d="M60 28L67 43L82 49L67 56L60 70L53 56L38 49L53 43Z"/></g></symbol>
</svg>
